<mxfile host="app.diagrams.net" modified="2024-06-19T01:10:17.709Z" agent="Mozilla/5.0 (Windows NT 10.0; Win64; x64) AppleWebKit/537.36 (KHTML, like Gecko) Chrome/126.0.0.0 Safari/537.36" etag="m9X9mowwXpK3Ioj-w4zH" version="24.5.5" type="device">
  <diagram name="Страница — 1" id="KRx0mhYaBKuCpqBMLXbs">
    <mxGraphModel dx="880" dy="434" grid="1" gridSize="10" guides="1" tooltips="1" connect="1" arrows="1" fold="1" page="1" pageScale="1" pageWidth="827" pageHeight="1169" math="0" shadow="0">
      <root>
        <mxCell id="0" />
        <mxCell id="1" parent="0" />
        <mxCell id="VE2aZfS_RHy6uJ_txpmV-1" value="Entry" style="swimlane;fontStyle=1;align=center;verticalAlign=top;childLayout=stackLayout;horizontal=1;startSize=26;horizontalStack=0;resizeParent=1;resizeParentMax=0;resizeLast=0;collapsible=1;marginBottom=0;whiteSpace=wrap;html=1;" vertex="1" parent="1">
          <mxGeometry x="80" y="150" width="160" height="88" as="geometry" />
        </mxCell>
        <mxCell id="VE2aZfS_RHy6uJ_txpmV-2" value="- name : string&lt;div&gt;- description : string&lt;/div&gt;&lt;div&gt;- date : dateTime&lt;/div&gt;" style="text;strokeColor=none;fillColor=none;align=left;verticalAlign=top;spacingLeft=4;spacingRight=4;overflow=hidden;rotatable=0;points=[[0,0.5],[1,0.5]];portConstraint=eastwest;whiteSpace=wrap;html=1;" vertex="1" parent="VE2aZfS_RHy6uJ_txpmV-1">
          <mxGeometry y="26" width="160" height="54" as="geometry" />
        </mxCell>
        <mxCell id="VE2aZfS_RHy6uJ_txpmV-3" value="" style="line;strokeWidth=1;fillColor=none;align=left;verticalAlign=middle;spacingTop=-1;spacingLeft=3;spacingRight=3;rotatable=0;labelPosition=right;points=[];portConstraint=eastwest;strokeColor=inherit;" vertex="1" parent="VE2aZfS_RHy6uJ_txpmV-1">
          <mxGeometry y="80" width="160" height="8" as="geometry" />
        </mxCell>
        <mxCell id="VE2aZfS_RHy6uJ_txpmV-5" value="EntryList" style="swimlane;fontStyle=1;align=center;verticalAlign=top;childLayout=stackLayout;horizontal=1;startSize=26;horizontalStack=0;resizeParent=1;resizeParentMax=0;resizeLast=0;collapsible=1;marginBottom=0;whiteSpace=wrap;html=1;" vertex="1" parent="1">
          <mxGeometry x="350" y="134" width="246" height="160" as="geometry" />
        </mxCell>
        <mxCell id="VE2aZfS_RHy6uJ_txpmV-6" value="- entries :&amp;nbsp;List&amp;lt;Entry&amp;gt;" style="text;strokeColor=none;fillColor=none;align=left;verticalAlign=top;spacingLeft=4;spacingRight=4;overflow=hidden;rotatable=0;points=[[0,0.5],[1,0.5]];portConstraint=eastwest;whiteSpace=wrap;html=1;" vertex="1" parent="VE2aZfS_RHy6uJ_txpmV-5">
          <mxGeometry y="26" width="246" height="26" as="geometry" />
        </mxCell>
        <mxCell id="VE2aZfS_RHy6uJ_txpmV-7" value="" style="line;strokeWidth=1;fillColor=none;align=left;verticalAlign=middle;spacingTop=-1;spacingLeft=3;spacingRight=3;rotatable=0;labelPosition=right;points=[];portConstraint=eastwest;strokeColor=inherit;" vertex="1" parent="VE2aZfS_RHy6uJ_txpmV-5">
          <mxGeometry y="52" width="246" height="8" as="geometry" />
        </mxCell>
        <mxCell id="VE2aZfS_RHy6uJ_txpmV-8" value="+ AddEntry(Entry): void&lt;div&gt;+ RemoveEntry(int) : void&lt;/div&gt;&lt;div&gt;+ SortByDate() : void&lt;/div&gt;&lt;div&gt;+ SortByTitle() ; void&lt;/div&gt;&lt;div&gt;+&amp;nbsp;SearchByKeyword(string) : List&amp;lt;Entry&amp;gt;&lt;/div&gt;&lt;div&gt;+ PrintToListbox(ListBox) : void&lt;/div&gt;" style="text;strokeColor=none;fillColor=none;align=left;verticalAlign=top;spacingLeft=4;spacingRight=4;overflow=hidden;rotatable=0;points=[[0,0.5],[1,0.5]];portConstraint=eastwest;whiteSpace=wrap;html=1;" vertex="1" parent="VE2aZfS_RHy6uJ_txpmV-5">
          <mxGeometry y="60" width="246" height="100" as="geometry" />
        </mxCell>
        <mxCell id="VE2aZfS_RHy6uJ_txpmV-9" style="edgeStyle=orthogonalEdgeStyle;rounded=0;orthogonalLoop=1;jettySize=auto;html=1;exitX=0.012;exitY=0.09;exitDx=0;exitDy=0;entryX=1;entryY=0.5;entryDx=0;entryDy=0;exitPerimeter=0;startArrow=diamondThin;startFill=1;endArrow=none;endFill=0;targetPerimeterSpacing=6;endSize=16;sourcePerimeterSpacing=10;startSize=15;" edge="1" parent="1" source="VE2aZfS_RHy6uJ_txpmV-8" target="VE2aZfS_RHy6uJ_txpmV-2">
          <mxGeometry relative="1" as="geometry" />
        </mxCell>
        <mxCell id="VE2aZfS_RHy6uJ_txpmV-10" value="1" style="text;html=1;align=center;verticalAlign=middle;resizable=0;points=[];autosize=1;strokeColor=none;fillColor=none;" vertex="1" parent="1">
          <mxGeometry x="315" y="178" width="30" height="30" as="geometry" />
        </mxCell>
        <mxCell id="VE2aZfS_RHy6uJ_txpmV-11" value="0..*" style="text;html=1;align=center;verticalAlign=middle;resizable=0;points=[];autosize=1;strokeColor=none;fillColor=none;" vertex="1" parent="1">
          <mxGeometry x="230" y="179" width="40" height="30" as="geometry" />
        </mxCell>
      </root>
    </mxGraphModel>
  </diagram>
</mxfile>
